<?xml version="1.0" encoding="UTF-8" standalone="no"?>
<!DOCTYPE svg PUBLIC "-//W3C//DTD SVG 1.1//EN" "http://www.w3.org/Graphics/SVG/1.1/DTD/svg11.dtd">
<svg width="100%" height="100%" viewBox="0 0 695 709" version="1.1" xmlns="http://www.w3.org/2000/svg" xmlns:xlink="http://www.w3.org/1999/xlink" xml:space="preserve" xmlns:serif="http://www.serif.com/" style="fill-rule:evenodd;clip-rule:evenodd;stroke-linejoin:round;stroke-miterlimit:2;">
    <g transform="matrix(1.02684,0,0,1.04202,-8.12227,-14.9113)">
        <g id="Warstwa-3" serif:id="Warstwa 3">
            <path id="rect923" d="M346.683,14.31C160.838,14.31 7.91,167.884 7.91,354.514L7.91,354.515C7.91,541.145 160.838,694.719 346.683,694.719C532.529,694.718 685.456,541.145 685.456,354.515C685.456,167.884 532.529,14.311 346.683,14.31Z" style="fill:url(#_Linear1);fill-rule:nonzero;"/>
        </g>
    </g>
    <g id="Warstwa-1" serif:id="Warstwa 1" transform="matrix(1.04202,0,0,1.04202,-19.1264,-14.9113)">
        <g id="g18759" transform="matrix(0.834617,0,0,0.846959,111.255,77.7143)">
            <g id="path232" transform="matrix(0.264583,0,0,0.264583,0,0)">
                <path d="M1104.12,257.366C892.679,257.343 682.369,257.97 672.005,259.276C650.114,262.034 648.46,263.697 618.966,312.564C566.246,399.911 422.688,639.312 338.779,779.815C287.57,865.564 232.49,957.716 216.38,984.596C200.269,1011.48 187.087,1034.01 187.087,1034.66C187.087,1035.32 202.185,1063.07 220.632,1096.34C239.079,1129.6 274.382,1193.82 299.083,1239.03C393.847,1412.48 622.944,1823.66 636.638,1844.87L643.459,1855.44L693.78,1856.33C761.285,1857.53 1524.93,1855.64 1532.13,1854.26C1535.24,1853.66 1541.67,1853.07 1546.41,1852.95C1553.78,1852.77 1556.43,1850.39 1564.82,1836.43C1570.21,1827.47 1579.36,1812.93 1585.16,1804.12C1602.56,1777.7 1702.46,1613.89 1822.59,1414.78C1847.05,1374.25 1872.56,1332.15 1879.28,1321.24C1886,1310.33 1897.55,1291.19 1904.93,1278.72C1912.32,1266.25 1932.96,1231.81 1950.8,1202.18C1994.75,1129.19 2023.94,1077.71 2023.94,1073.18C2023.94,1068.73 1981.94,993.723 1869.2,796.829C1823.67,717.317 1736.03,564.246 1674.43,456.671L1562.43,261.081L1543.03,259.376C1528.14,258.066 1315.57,257.389 1104.12,257.366ZM1079.77,270.952C1271.06,270.9 1461.05,271.411 1462.87,272.536C1465.32,274.049 1466.76,285.17 1464.51,285.17C1463.96,285.17 1310.96,323.438 1124.51,370.209C938.057,416.981 782.566,455.208 778.974,455.154C773.505,455.075 766.853,445.52 738.038,396.336C694.828,322.583 677.48,289.593 677.48,281.161C677.48,275.65 679.356,274.259 688.819,272.746C695.867,271.619 888.472,271.004 1079.77,270.952ZM1541,280.486C1545.87,280.449 1549.03,281.263 1551.1,282.867C1554.27,285.326 1560.79,306.78 1570.33,346.115C1578.27,378.855 1589.15,423.501 1594.49,445.327C1599.84,467.154 1611.97,517.54 1621.45,557.296C1630.93,597.052 1642.34,644.886 1646.81,663.595C1651.27,682.304 1657.08,707.178 1659.7,718.871C1662.33,730.564 1665.63,743.319 1667.04,747.217C1668.45,751.115 1670.73,760.044 1672.1,767.06C1674.59,779.762 1677.95,794.095 1685.43,823.752C1687.59,832.327 1692.49,852.737 1696.32,869.107C1706.42,912.305 1716.81,955.655 1728.08,1001.63C1733.52,1023.84 1737.18,1043.3 1736.22,1044.86C1732.91,1050.21 1728.92,1048.67 1697.36,1029.86C1668.01,1012.38 1549.26,939.902 1516.54,919.499C1501.72,910.265 1487.06,901.237 1483.94,899.441C1474.9,894.233 1460.54,885.471 1428.66,865.707C1412.29,855.557 1396.98,846.444 1394.65,845.455C1392.31,844.466 1376.36,834.784 1359.21,823.941C1342.06,813.097 1320.02,799.374 1310.23,793.441C1300.43,787.508 1286.4,778.823 1279.03,774.146C1271.66,769.469 1254.15,758.748 1240.13,750.323C1226.12,741.898 1206.31,729.779 1196.13,723.394C1174.17,709.628 1172.62,708.678 1145.2,691.98C1133.5,684.861 1115.3,673.645 1104.74,667.061C1094.18,660.476 1071.85,646.841 1055.13,636.76C1038.41,626.678 1018.98,614.572 1011.97,609.853C998.193,600.588 954.947,574.304 953.476,574.304C952.982,574.304 944.276,568.882 934.132,562.256C923.988,555.63 909.608,546.461 902.176,541.877C881.773,529.293 821.672,489.265 812.995,482.482C803.255,474.868 802.955,467.24 812.259,463.703C827.613,457.865 1228.17,354.631 1264.11,347.25C1271.04,345.825 1280.61,343.395 1285.37,341.852C1290.13,340.308 1316.98,333.375 1345.04,326.444C1373.1,319.512 1414.56,309.23 1437.16,303.589C1459.77,297.949 1487.84,290.961 1499.53,288.06C1520.01,282.977 1532.88,280.548 1541,280.486ZM655.384,288.995C656.511,289.004 657.528,289.568 658.612,290.468C667.344,297.715 756.85,457.444 756.85,465.779C756.85,469.051 661.03,566.164 507.008,718.992C369.595,855.342 254.792,967.312 251.89,967.81C248.488,968.394 246.614,967.031 246.614,963.973C246.614,958.259 288.877,886.119 409.302,686.272C459.093,603.642 504.784,527.745 510.834,517.611C516.885,507.477 538.992,471.123 559.959,436.823C580.926,402.524 607.951,358.162 620.018,338.242C643.556,299.382 650.505,288.962 655.384,288.995ZM1535.48,304.431L1524.41,306.203C1513.72,307.912 1464.91,320.357 1435.75,328.808C1427.95,331.067 1415.2,334.344 1407.4,336.088C1385.19,341.059 1371.38,344.426 1360.63,347.493C1355.17,349.05 1336.68,353.611 1319.53,357.63C1302.38,361.65 1284.52,366.008 1279.84,367.314C1246.96,376.492 1221.26,383.146 1197.64,388.59C1153.07,398.863 1140.48,402.015 1106.93,411.312C1099.13,413.472 1087.02,416.658 1080,418.387C1072.98,420.116 1060.23,423.283 1051.65,425.424C1043.08,427.564 1028.41,431.136 1019.06,433.363C1001.65,437.507 987.371,441.232 962.362,448.162C947.311,452.333 932.409,456.122 907.087,462.219C898.512,464.283 887.669,467.288 882.992,468.896C878.315,470.503 869.75,472.603 863.958,473.563C849.138,476.02 848.426,479.639 861.444,486.28C867.63,489.436 873.475,493.293 874.438,494.851C875.401,496.408 884.737,502.831 895.183,509.123C905.629,515.416 923.74,526.828 935.433,534.486C958.651,549.692 1000.37,575.095 1004.88,576.778C1007.35,577.698 1032.91,593.979 1054.49,608.38C1058.39,610.981 1066.04,615.356 1071.5,618.102C1076.95,620.849 1087.8,627.264 1095.59,632.359C1133.42,657.079 1176.72,683.785 1189.13,690.054C1193.81,692.415 1203.25,698.594 1210.1,703.778C1216.94,708.963 1223.91,713.201 1225.56,713.201C1227.22,713.201 1235.85,718.304 1244.74,724.54C1253.63,730.776 1262.19,735.878 1263.78,735.878C1265.36,735.878 1270.26,738.847 1274.67,742.472C1279.07,746.097 1289.69,753.194 1298.27,758.246C1316.29,768.861 1348.36,788.445 1377.69,806.745C1399.84,820.559 1431.44,839.9 1458.42,856.14C1467.78,861.771 1486.78,873.372 1500.66,881.918C1514.53,890.464 1526.65,897.453 1527.6,897.453C1528.54,897.453 1535.68,901.992 1543.48,907.541C1551.27,913.089 1562.74,920.129 1568.98,923.181C1575.21,926.233 1586.34,932.856 1593.71,937.897C1601.07,942.938 1615.54,952.162 1625.85,958.398C1636.16,964.634 1649.91,973.004 1656.4,976.995C1662.88,980.986 1675.84,988.917 1685.2,994.617C1694.55,1000.32 1702.55,1005.02 1702.97,1005.08C1703.39,1005.13 1702.95,1001.66 1702.01,997.375C1697.89,978.788 1689.24,942.402 1683.63,920.13C1672.94,877.651 1668.31,863.502 1665.79,849.927C1664.43,842.625 1662.62,836.434 1661.31,829.798C1660.35,824.924 1659.41,821.256 1658.27,814.114C1657.61,809.991 1657.17,807.517 1654.32,794.791C1652.27,785.66 1648.89,778.907 1641.06,740.13C1639.49,732.335 1636.94,722.753 1635.41,718.837C1633.88,714.922 1631.43,705.355 1629.97,697.577C1628.5,689.8 1625.24,675.146 1622.71,665.012C1620.19,654.878 1616.38,638.933 1614.24,629.579C1612.11,620.225 1608.45,604.918 1606.13,595.563C1595.48,552.773 1583.75,503.604 1581.09,490.682C1579.49,482.886 1575.72,471.913 1574.29,465.823C1572.76,459.326 1571.57,453.417 1570.29,445.981C1568.93,440.879 1567.3,434.073 1566.14,429.737C1564.96,425.327 1563.42,418.822 1562,413.493C1560.56,408.128 1559.67,401.735 1558,393.65C1556.73,387.524 1552.78,376.587 1551.16,368.792C1547.8,352.643 1543.52,334.694 1538.76,316.772L1535.48,304.431ZM1591.76,356.34C1594.84,356.219 1599.8,362.151 1610.89,378.004C1636.9,415.176 1683.07,493.552 1838.39,764.225C1961.88,979.407 1998.42,1045.64 1998.42,1054.21C1998.42,1056.67 1996.83,1059.72 1994.88,1060.98C1990.74,1063.65 1851,1064.07 1801.42,1061.56C1782.71,1060.61 1764.15,1058.29 1760.17,1056.4C1752.86,1052.92 1748.12,1036.86 1722.03,927.217C1719.81,917.863 1714.14,894.264 1709.45,874.776C1704.76,855.288 1693.81,809.367 1685.11,772.729C1676.41,736.091 1667.49,699.099 1665.29,690.524C1663.09,681.949 1659.41,666.642 1657.11,656.508C1650.07,625.511 1610.16,457.603 1602.88,428.319C1594.27,393.716 1587.77,360.566 1589.15,358.334C1589.92,357.09 1590.74,356.381 1591.76,356.34ZM1496.28,357.215C1496.56,361.143 1496.95,364.898 1497.43,368.482C1498.12,371.721 1498.4,374.939 1498.25,378.132C1500,409.705 1501.41,440.946 1502.48,471.858C1503.8,502.695 1505.73,533.791 1508.26,565.141C1509.74,585.051 1512.06,605.008 1515.22,625.012C1518.37,645.016 1521.23,664.961 1523.81,684.844C1523.75,687.152 1523.98,689.517 1524.5,691.947L1525.88,698.43C1526.68,702.209 1526.69,705.5 1525.91,708.302C1525.13,711.103 1522.95,713.158 1519.36,714.469C1509.31,719.063 1499.44,722.596 1489.77,725.077C1488.47,725.449 1486.87,725.049 1484.96,723.875C1483.06,722.702 1481.57,721.553 1480.5,720.426C1477.04,717.12 1473.84,713.738 1470.9,710.284C1467.96,706.829 1464.96,703.106 1461.9,699.111C1443.79,676.224 1425.71,653.47 1407.66,630.853C1389.55,607.966 1371.08,585.326 1352.25,562.932C1351.19,561.805 1349.8,560.486 1348.1,558.968C1346.6,557.105 1344.7,554.64 1342.39,551.577C1342.1,555.383 1341.92,558.442 1341.86,560.75C1342,562.715 1342.3,564.775 1342.76,566.935C1346.95,591.798 1351.34,616.317 1355.93,640.492C1360.53,664.666 1364.85,689.495 1368.89,714.973C1369.29,716.863 1369.59,718.923 1369.79,721.157L1371.17,727.635C1368.48,731.841 1365.42,734.291 1361.98,734.987C1358.54,735.684 1355.08,736.249 1351.58,736.676C1350.17,736.508 1348.77,735.761 1347.39,734.439C1346,733.117 1344.75,731.755 1343.62,730.359C1342.82,729.158 1342.24,727.749 1341.89,726.129L1340.78,720.864C1330.66,681.087 1321.6,641.146 1313.62,601.045C1305.58,560.673 1299.23,519.818 1294.56,478.479C1293.85,471.237 1294.13,466.716 1295.4,464.921C1296.68,463.125 1300.29,461.95 1306.24,461.394C1307.01,461.171 1307.98,461.185 1309.14,461.427C1310.23,461.399 1311.17,461.274 1311.95,461.051C1325.82,458.804 1337.1,465.171 1345.8,480.151C1353.76,494.2 1362.4,507.619 1371.75,520.412C1381.09,533.205 1390.63,545.656 1400.38,557.761C1410.33,569.521 1420.41,581.248 1430.62,592.934C1441.03,604.275 1451.34,615.784 1461.55,627.47C1462.56,628.327 1463.34,629.394 1463.88,630.67C1464.43,631.945 1464.95,633.086 1465.44,634.091C1465.85,633.403 1466.44,632.947 1467.22,632.724C1468.2,632.157 1468.89,631.53 1469.3,630.841C1468.44,624.214 1467.63,617.856 1466.89,611.769C1466.41,605.606 1465.77,599.347 1464.96,592.989C1461.65,559.284 1459.52,525.957 1458.58,493.007C1457.57,459.787 1458.74,426.375 1462.07,392.776L1462.85,384.82C1463.38,382.093 1463.87,379.23 1464.34,376.233C1464.89,372.352 1465.32,369.22 1465.64,366.837C1466.23,364.38 1467.08,362.56 1468.21,361.379C1469.54,359.853 1471.27,358.924 1473.41,358.599C1475.49,358.004 1478.3,357.632 1481.86,357.475C1484.05,357.42 1486.28,357.498 1488.53,357.713C1490.72,357.658 1493.3,357.493 1496.28,357.215ZM1482.18,419.24C1480.82,421.92 1479.76,424.087 1479.01,425.734C1478.2,427.111 1477.88,428.202 1478.05,429.011C1478.49,449.219 1479.58,469.24 1481.32,489.076C1483.32,508.838 1485.35,528.738 1487.41,548.77C1488.2,538.234 1488.73,527.771 1489,517.384C1489.53,506.922 1489.36,496.373 1488.47,485.743C1487.7,475.653 1487.27,465.183 1487.16,454.329C1487.32,443.402 1485.66,431.704 1482.18,419.24ZM783.237,487.664C786.04,486.589 802.234,494.843 826.222,509.572C847.389,522.569 876.198,540.217 890.245,548.792C995.072,612.782 1018.22,627.036 1033.23,636.837C1042.58,642.946 1052.79,649.186 1055.91,650.706C1059.02,652.226 1081.98,666.22 1106.93,681.799C1131.87,697.378 1163.58,716.874 1177.39,725.127C1191.2,733.379 1205.45,742.044 1209.08,744.382C1219.51,751.122 1256.88,774.001 1260,775.563C1261.56,776.343 1269.85,781.522 1278.42,787.074C1287,792.625 1295.93,798.058 1298.27,799.143C1300.61,800.228 1310.17,806.12 1319.53,812.242C1328.88,818.364 1356.04,835.26 1379.88,849.785C1403.72,864.31 1426.23,878.107 1429.89,880.445C1433.56,882.784 1443.39,888.879 1451.74,893.993C1460.1,899.106 1477.77,910.03 1491.02,918.265C1504.28,926.5 1535.53,945.757 1560.47,961.056C1585.42,976.355 1609.2,990.943 1613.31,993.477C1617.43,996.011 1628.09,1002.55 1637,1008C1645.92,1013.46 1656.58,1020.12 1660.7,1022.81C1664.82,1025.49 1673.14,1030.6 1679.19,1034.15C1685.24,1037.7 1692.89,1042.26 1696.2,1044.27C1699.5,1046.29 1707.28,1050.93 1713.48,1054.58C1726.57,1062.29 1731.75,1068.96 1727.66,1072.83C1724.38,1075.93 1095.22,1431.95 968.031,1502.68C919.701,1529.55 864.485,1559.44 845.328,1569.1C811.37,1586.22 793.125,1592.24 790.097,1587.3C789.274,1585.95 787.75,1477.07 786.708,1345.33C785.667,1213.59 784.382,1086.03 783.857,1061.86C783.332,1037.7 781.969,899.003 780.823,753.656C778.932,513.742 779.154,489.231 783.237,487.664ZM755.245,498.35C760.428,499.091 761.319,501.809 762.946,521.863C765.613,554.736 767.964,658.099 769.656,816.666C770.472,893.06 771.71,999.571 772.402,1053.36C776.679,1385.64 777.3,1574.18 774.135,1580.09C772.316,1583.49 768.637,1586.25 765.963,1586.22C760.27,1586.16 757.61,1583.6 449.291,1281.62C283.501,1119.25 209.763,1044.4 209.731,1038.45C209.703,1033.8 260.549,981.473 400.482,842.178C691.077,552.908 748.386,497.369 755.245,498.35ZM1352.68,524.149C1352.02,527.49 1351.6,530.043 1351.42,531.812C1351.25,533.58 1351.3,535.14 1351.59,536.49C1351.88,537.84 1352.48,539.383 1353.4,541.124C1354.27,542.595 1355.51,544.535 1357.12,546.937C1369.98,565.884 1382.98,584.217 1396.13,601.936C1409.54,619.58 1423.77,636.557 1438.83,652.871C1440.96,655.124 1443.04,657.109 1445.06,658.823C1447.02,660.266 1449.27,661.77 1451.81,663.335C1454.08,670.131 1458.44,672.467 1464.88,670.338C1462.43,667.889 1460.29,665.636 1458.48,663.578C1456.92,661.446 1455.39,659.445 1453.89,657.582C1453.14,656.651 1452.55,655.821 1452.12,655.086C1451.95,654.276 1451.49,653.403 1450.74,652.472C1436.14,633.161 1421.59,613.985 1407.05,594.943L1363.45,537.819L1358.01,531.646C1356.39,529.243 1354.62,526.747 1352.68,524.149ZM1322.71,527.133L1321.54,527.471L1324.73,542.453L1325.9,542.12L1322.71,527.133ZM738.425,540.687L668.976,608.845C587.736,688.579 246.612,1028.11 241.238,1034.59C238.072,1038.4 244.364,1045.72 287.124,1088C372.47,1172.36 485.268,1283.09 602.622,1397.71C664.844,1458.48 722.762,1515.57 731.333,1524.56C739.904,1533.56 747.793,1540.92 748.861,1540.92C753.49,1540.92 754.116,1525.38 752.759,1444.15C751.968,1396.81 750.644,1282.82 749.819,1190.84C746.291,797.506 743.183,591.71 740.308,560.872L738.425,540.687ZM1329,564.432C1328.79,564.777 1328.3,565.056 1327.52,565.279L1330.1,577.432L1331.28,577.094L1329.98,571.021C1329.52,568.861 1329.19,566.666 1329,564.432ZM632.491,740.153C635.605,740.223 638.626,740.654 641.554,741.443C649.588,743.336 657.344,747.043 664.819,752.565C667.183,754.653 669.356,757.111 671.34,759.94C673.253,762.445 673.913,767.279 673.317,774.44C669.05,776.057 665.094,776.022 661.458,774.334L650.551,769.269C648.994,768.377 647.323,767.593 645.541,766.91C643.758,766.228 641.971,766.133 640.176,766.628C623.32,774.065 607.282,785.216 592.064,800.079C577.073,814.732 563.123,833.479 550.209,856.318C549.829,857.059 549.561,857.696 549.406,858.228C549.478,858.551 549.356,859.24 549.047,860.304L580.665,1003.64C584.79,1001.38 588.665,997.989 592.291,993.466C596.144,988.734 599.955,984.426 603.724,980.549C608.848,975.418 614.087,970.183 619.437,964.843C625.012,959.293 630.548,954.174 636.04,949.479C648.606,938.626 660.145,940.379 670.659,954.75C665.607,960.204 660.777,965.453 656.176,970.49C651.504,975.203 647.055,980.292 642.822,985.765C635.118,995.228 627.524,1004.59 620.046,1013.85C612.793,1022.89 605.462,1032.2 598.055,1041.78C595.106,1045.67 592.95,1048.84 591.583,1051.27C590.144,1053.38 589.146,1055.66 588.599,1058.11C588.206,1060.03 588.105,1062.65 588.294,1065.97C588.638,1068.76 588.971,1072.73 589.291,1077.88C590.605,1094.93 591.885,1111.83 593.127,1128.56C594.37,1145.29 595.421,1162.39 596.283,1179.87C596.529,1192.08 595.581,1204.42 593.437,1216.9C591.223,1229.06 588.156,1241.04 584.23,1252.84C580.459,1264.1 576.002,1272.89 570.866,1279.2C565.955,1285.3 559.995,1288.49 552.983,1288.76C550,1288.8 546.79,1289.05 543.355,1289.5C540.146,1289.75 537.014,1289.74 533.96,1289.45C532.617,1289.53 531.282,1289.02 529.951,1287.91C528.621,1286.81 527.957,1285.68 527.969,1284.5C527.995,1282.14 528.358,1279.48 529.06,1276.49C529.762,1273.51 530.643,1271.33 531.701,1269.97C537.075,1262.27 541.002,1254.17 543.477,1245.66C545.952,1237.15 547.428,1227.81 547.906,1217.65C548.539,1206.96 548.285,1195.33 547.148,1182.78C546.165,1169.69 544.828,1154.99 543.134,1138.68C539.117,1137.73 535.658,1136.85 532.758,1136.04C524.499,1134.36 521.597,1126.74 524.05,1113.2C525.086,1106.8 526.563,1100.57 528.49,1094.51C530.346,1088.12 532.389,1081.95 534.613,1076.01C535.85,1071.75 536.784,1067.97 537.414,1064.67C538.2,1060.83 538.427,1056.93 538.095,1052.96C535.701,1032.24 533.489,1011.74 531.463,991.456L526.065,929.98C525.935,928.156 525.612,926.705 525.101,925.623L523.823,919.809C521.1,923.496 518.89,927.676 517.201,932.349C515.738,936.814 514.313,941.442 512.921,946.229C511.755,950.807 510.477,955.488 509.085,960.275C507.919,964.853 506.157,969.201 503.803,973.324L494.64,972.477L485.261,970.661C481.316,970.037 479.536,965.658 479.919,957.529C480.825,949.304 482.063,941.358 483.634,933.684C489.906,904.164 498.528,877.911 509.505,854.922C520.637,831.402 533.904,810.764 549.301,793.014C559.716,781.042 570.407,770.948 581.379,762.736C592.506,753.991 604.1,747.346 616.153,742.799C621.859,740.92 627.302,740.036 632.491,740.153ZM546.86,844.841C544.886,848.223 542.876,851.442 540.83,854.502C538.714,857.238 536.782,860.193 535.034,863.366C532.453,867.698 529.947,871.762 527.521,875.562C525.024,879.04 522.712,882.738 520.584,886.652C520.132,887.07 520.157,888.406 520.656,890.666C521.309,892.394 521.802,895.245 522.134,899.214C524.965,892.317 527.451,886.323 529.592,881.232C531.732,876.14 533.761,871.155 535.676,866.272C537.876,862.681 539.92,859.62 541.81,857.093C543.63,854.243 545.64,851.023 547.84,847.432C547.768,847.109 547.583,846.887 547.286,846.773L546.86,844.841ZM543.643,928.286C542.644,931.154 542.25,933.075 542.464,934.043C548.932,964.599 553.711,996.13 556.803,1028.64C560.121,1060.95 562.763,1093.88 564.726,1127.44C564.844,1130.44 565.191,1133.24 565.761,1135.82C566.259,1138.08 566.679,1140.6 567.023,1143.39C566.915,1146.6 566.844,1149.97 566.807,1153.51C566.925,1156.51 566.926,1159.62 566.819,1162.83C567.496,1162.2 568.358,1161.79 569.404,1161.6C569.286,1158.6 569.056,1155.7 568.712,1152.91L568.358,1143.91C568.645,1137.81 569.231,1131.83 570.113,1125.96C571.149,1119.56 571.433,1113.46 570.971,1107.66C569.998,1100.79 569.698,1093.88 570.068,1086.93C570.368,1079.65 570.179,1072.63 569.504,1065.87C568.568,1055.46 567.521,1045.16 566.359,1034.96L563.552,1003.74C562.118,991.074 560.266,978.986 557.999,967.478C555.887,955.438 552.682,944.606 548.382,934.979C549.237,938.853 549.979,942.833 550.608,946.916C551.391,950.467 552.1,954.282 552.728,958.365C551.41,956.087 550.352,953.763 549.556,951.389L547.629,942.669C547.06,940.087 546.416,937.772 545.692,935.721C545.122,933.138 544.439,930.659 543.643,928.286ZM1839.99,1076C1852.94,1076 1867.88,1076.04 1885.12,1076.04C1988.01,1076.04 2003.7,1076.59 2005.13,1080.31C2006.76,1084.55 1984.44,1123.78 1918.06,1233.36C1900.12,1262.98 1871.53,1310.18 1854.53,1338.24C1828.33,1381.49 1770.66,1476.19 1755.01,1501.66C1752.47,1505.8 1745.18,1517.92 1738.81,1528.59C1732.44,1539.27 1712.81,1571.6 1695.2,1600.44C1677.59,1629.29 1654.64,1666.92 1644.2,1684.07C1633.76,1701.22 1617.91,1727.05 1608.98,1741.47C1600.04,1755.89 1591.03,1767.69 1588.95,1767.69C1579.82,1767.69 1581.23,1755.57 1598.66,1684.07C1638.79,1519.5 1653.01,1461.54 1655.38,1453.04C1656.9,1447.59 1673.65,1380.62 1692.61,1304.23C1727.3,1164.36 1732.35,1145.6 1745.46,1107.81C1755.81,1077.99 1749.34,1076.03 1839.99,1076ZM1722.5,1098.71C1725.97,1098.71 1729.52,1099.88 1730.41,1101.31C1731.29,1102.74 1728.95,1113.9 1725.22,1126.11C1721.49,1138.33 1714.36,1165.54 1709.39,1186.59C1704.42,1207.63 1692.67,1255.47 1683.27,1292.89C1673.86,1330.3 1665.12,1366.02 1663.84,1372.26C1662.55,1378.49 1657.74,1397.63 1653.13,1414.78C1648.54,1431.93 1644.06,1449.15 1643.18,1453.04C1639.89,1467.68 1632.75,1496.24 1614.8,1566.43C1604.64,1606.19 1589.96,1663.59 1582.19,1693.99C1569.45,1743.84 1561.26,1774.41 1549.02,1817.7C1545.12,1831.5 1541.41,1835.84 1534.96,1834.14C1517.17,1829.45 1434.9,1805.49 1422.99,1801.53C1407.98,1796.54 1361.58,1782.43 1335.12,1774.81C1315.65,1769.2 1258.99,1751.86 1213.23,1737.5C1170.54,1724.1 1134.38,1712.9 1095.59,1701.06C1058.49,1689.74 979.913,1665.43 972.283,1662.91C963.941,1660.16 907.424,1642.8 873.071,1632.45C831.777,1620 824.882,1617.05 824.882,1611.83C824.882,1607.27 843.952,1593.77 895.748,1561.66C924.428,1543.89 932.943,1538.87 948.189,1530.74C955.984,1526.59 971.929,1517.39 983.622,1510.3C1011.26,1493.54 1062.4,1464.15 1190.55,1391.37C1247.48,1359.05 1332.88,1310.17 1357.8,1295.65C1366.37,1290.66 1385.5,1279.79 1400.32,1271.5C1415.13,1263.21 1436.17,1251.38 1447.09,1245.2C1483.02,1224.87 1537.32,1194.59 1566.14,1178.82C1581.73,1170.29 1600.23,1159.73 1607.24,1155.36C1630.93,1140.6 1716.15,1098.71 1722.5,1098.71ZM255.434,1113.99C256.947,1114.22 258.752,1115.11 260.976,1116.67C267.071,1120.94 336.619,1187.66 416.693,1266.05C437.74,1286.66 487.035,1334.93 526.236,1373.32C565.438,1411.71 635.914,1480.67 682.851,1526.57C751.175,1593.38 768.182,1611.46 768.139,1617.28C768.109,1621.27 761.972,1636.02 754.503,1650.05C739.736,1677.79 678.016,1778.15 658.186,1806.67C645.576,1824.8 644.315,1825.82 638.952,1822.21C631.414,1817.15 502.362,1587.08 384.178,1368C362.73,1328.25 323.463,1255.79 296.918,1206.97C263.033,1144.66 249.545,1117.32 251.647,1115.22C252.698,1114.17 253.92,1113.75 255.434,1113.99ZM1691.38,1139.54C1686.64,1139.88 1676.81,1145.14 1658.98,1154.38C1639.1,1164.68 1619.65,1175.32 1615.75,1178.02C1611.85,1180.72 1593.99,1190.88 1576.06,1200.58C1558.13,1210.29 1527.52,1227.21 1508.03,1238.18C1488.54,1249.16 1461.76,1264.23 1448.5,1271.68C1435.25,1279.13 1411.02,1292.96 1394.65,1302.41C1378.28,1311.86 1357.31,1323.61 1348.05,1328.52C1338.79,1333.43 1327.95,1339.69 1323.96,1342.44C1319.96,1345.18 1295.65,1359.29 1269.92,1373.79C1217.82,1403.16 1193.19,1417.11 1180.87,1424.19C1153.34,1440.04 1081.41,1481.1 1065.83,1489.88C1055.69,1495.59 1035.92,1507 1021.89,1515.23C1007.86,1523.47 988.087,1534.98 977.953,1540.8C967.819,1546.62 939.39,1563.36 914.777,1578.02C863.476,1608.56 863.79,1604.83 911.339,1618.94C925.37,1623.1 943.866,1628.77 952.441,1631.53C961.016,1634.29 977.598,1639.45 989.291,1643C1000.98,1646.55 1017.57,1651.66 1026.14,1654.36C1051.33,1662.3 1077.1,1670.24 1099.84,1677.08C1111.54,1680.59 1128.12,1685.69 1136.69,1688.42C1145.27,1691.14 1161.85,1696.25 1173.54,1699.76C1185.24,1703.28 1201.04,1708.52 1208.65,1711.41C1216.26,1714.3 1224.23,1716.67 1226.36,1716.67C1228.48,1716.67 1238.19,1719.26 1247.94,1722.43C1274.42,1731.05 1295.57,1737.63 1337.95,1750.45C1359,1756.82 1383.87,1764.42 1393.23,1767.35C1402.58,1770.28 1419.16,1775.4 1430.08,1778.73C1440.99,1782.06 1463.95,1789.12 1481.1,1794.41C1521.83,1806.99 1525.83,1807.06 1530.06,1795.33C1533.26,1786.47 1542.8,1751.48 1547.64,1730.84C1548.93,1725.38 1552.81,1710.71 1556.28,1698.24C1563.18,1673.44 1568.22,1653.54 1574.22,1627.38C1576.36,1618.02 1580.18,1603.35 1582.69,1594.78C1587.13,1579.61 1597.98,1537.11 1606.2,1502.65C1613.04,1473.98 1614.86,1466.8 1622.72,1437.45C1626.9,1421.86 1631.47,1404 1632.87,1397.77C1637.53,1377.1 1643.48,1352.8 1651.96,1319.82C1656.57,1301.89 1661.94,1279.56 1663.9,1270.21C1665.87,1260.86 1669.79,1244.91 1672.62,1234.78C1675.46,1224.64 1679.67,1208.7 1681.98,1199.34C1684.29,1189.99 1688.19,1174.38 1690.65,1164.66C1695.16,1146.81 1697.48,1139.1 1691.38,1139.54ZM1476.26,1389.62L1472.83,1435.96L1530.29,1417.46L1473.38,1479.68L1524.1,1507.69L1463.86,1527.65L1460.32,1568.94L1414.76,1543.78L1358.46,1605.33L1360.67,1560.32L1306.69,1576.74L1362.46,1514.9L1314.89,1487.62L1367.9,1469.66L1371.94,1422.66L1421.6,1450.25L1476.26,1389.62ZM1463.81,1415.17L1433.28,1448.55L1462.32,1438.97L1463.81,1415.17ZM1503.83,1434.45L1471.5,1445.04L1469.76,1471.69L1503.83,1434.45ZM1380.6,1441.25L1378.42,1466.66L1408.59,1456.7L1380.6,1441.25ZM1460.88,1448.16L1433.51,1457.66L1458.87,1471.66L1460.88,1448.16ZM1420.57,1463.32L1378.11,1509.73L1415.89,1530.6L1458.34,1484.18L1420.57,1463.32ZM1406.74,1466.49L1378.31,1475.41L1376.21,1499.87L1406.74,1466.49ZM1367.1,1479.03L1339.2,1488.24L1365.08,1502.54L1367.1,1479.03ZM1468.19,1490.12L1465.21,1518.41L1498.66,1507.44L1468.19,1490.12ZM1456.6,1498.02L1427.29,1530.07L1454.06,1521.24L1456.6,1498.02ZM1374.88,1521.76L1372.7,1547.16L1403.39,1537.5L1374.88,1521.76ZM1363.76,1525.43L1332.63,1559.47L1362.1,1550.12L1363.76,1525.43ZM1453.26,1530.61L1428.75,1538.7L1451.58,1551.3L1453.26,1530.61ZM1400.33,1547.62L1371.9,1556.54L1370.41,1580.33L1400.33,1547.62ZM793.479,1624.36C799.305,1623.63 808.536,1626.38 827.717,1631.8C839.409,1635.11 857.268,1640.12 867.402,1642.95C877.535,1645.77 903.685,1653.45 925.512,1660.01C947.339,1666.57 979.866,1676.34 997.795,1681.73C1015.72,1687.11 1036.77,1693.46 1044.57,1695.85C1052.36,1698.24 1064.48,1701.88 1071.5,1703.96C1078.51,1706.03 1113.59,1716.85 1149.45,1727.99C1185.31,1739.14 1220.39,1749.96 1227.4,1752.04C1271.02,1764.99 1415.71,1811.17 1442.66,1820.75C1456.54,1825.68 1466.06,1833.32 1462.58,1836.75C1458.67,1840.59 1405.51,1841.55 1118.27,1842.95C945.213,1843.8 801.071,1844.75 797.953,1845.07C794.835,1845.38 763.583,1845.01 728.504,1844.23C667.219,1842.86 664.694,1842.59 663.905,1837.08C662.768,1829.14 725.481,1721.23 779.683,1637.86C785.236,1629.32 787.654,1625.1 793.479,1624.36Z" style="fill:white;fill-rule:nonzero;"/>
            </g>
            <g transform="matrix(0.927233,-0.431141,0.447909,0.870211,256.157,353.445)">
                <g id="text51985">
                    <text x="0px" y="0px" style="font-family:'Sugiono';font-size:163.809px;fill:white;">A</text>
                </g>
            </g>
            <g transform="matrix(1.00442,0.428937,0.703372,1.29598,128.782,399.047)">
                <g id="text68457">
                    <text x="0px" y="0px" style="font-family:'Viking';font-size:41.757px;fill:white;">0</text>
                </g>
            </g>
            <g transform="matrix(-0.904353,-0.817118,0,1.10576,482.745,234.669)">
                <g id="text74221">
                    <text x="0px" y="0px" style="font-family:'Viking';font-size:40.347px;fill:white;">4</text>
                </g>
            </g>
            <g transform="matrix(1.12288,0.26165,0.379901,-0.802045,230.767,449.327)">
                <g id="text82887">
                    <text x="0px" y="0px" style="font-family:'Viking';font-size:38.393px;fill:white;">@</text>
                </g>
            </g>
            <g transform="matrix(0.947192,-0.389574,-0.482676,1.25427,138.386,154.196)">
                <g id="text89987">
                    <text x="0px" y="0px" style="font-family:'Viking';font-size:30px;fill:white;">6</text>
                </g>
            </g>
            <g transform="matrix(1.60421,0,0,0.62336,243.751,94.0578)">
                <g id="text96405">
                    <text x="0px" y="0px" style="font-family:'Viking';font-size:34.328px;fill:white;">3</text>
                </g>
            </g>
            <g transform="matrix(0.881737,-0.993778,0,1.13412,462.936,368.567)">
                <g id="text108160">
                    <text x="0px" y="0px" style="font-family:'Viking';font-size:37.966px;fill:white;">2</text>
                </g>
            </g>
        </g>
        <g id="path873" transform="matrix(0.985428,0,0,-1,10.5604,0)">
            <path d="M18.519,-416.225C81.575,-565.678 252.403,-653.89 423.864,-625.537C595.325,-597.184 722.099,-459.76 724.678,-299.454L359.227,-294.475L18.519,-416.225Z" style="fill:none;fill-rule:nonzero;"/>
        </g>
    </g>
    <g transform="matrix(1.02684,0,0,1.04202,-13.2037,6.95924)">
        <g id="Warstwa-2" serif:id="Warstwa 2">
            <g id="path6688">
                <g transform="matrix(0.77847,0.627682,-0.627682,0.77847,157.268,548.194)">
                    <text x="0px" y="0px" style="font-family:'Sugiono';font-size:85px;fill:white;">C</text>
                </g>
                <g transform="matrix(0.907214,0.420669,-0.420669,0.907214,209.92,588.369)">
                    <text x="0px" y="0px" style="font-family:'Sugiono';font-size:85px;fill:white;">U</text>
                </g>
                <g transform="matrix(0.976025,0.217659,-0.217659,0.976025,276.835,616.069)">
                    <text x="0px" y="0px" style="font-family:'Sugiono';font-size:85px;fill:white;">L</text>
                </g>
                <g transform="matrix(0.999254,0.0386276,-0.0386276,0.999254,315.691,625.138)">
                    <text x="0px" y="0px" style="font-family:'Sugiono';font-size:85px;fill:white;">T</text>
                </g>
                <g transform="matrix(0.980154,-0.198237,0.198237,0.980154,384.091,626.329)">
                    <text x="0px" y="0px" style="font-family:'Sugiono';font-size:85px;fill:white;">U</text>
                </g>
                <g transform="matrix(0.89641,-0.443225,0.443225,0.89641,454.939,609.879)">
                    <text x="0px" y="0px" style="font-family:'Sugiono';font-size:85px;fill:white;">R</text>
                </g>
                <g transform="matrix(0.771133,-0.636674,0.636674,0.771133,519.415,575.155)">
                    <text x="0px" y="0px" style="font-family:'Sugiono';font-size:85px;fill:white;">E</text>
                </g>
            </g>
        </g>
    </g>
    <defs>
        <linearGradient id="_Linear1" x1="0" y1="0" x2="1" y2="0" gradientUnits="userSpaceOnUse" gradientTransform="matrix(634.726,0,0,634.726,-17.8299,355.322)"><stop offset="0" style="stop-color:rgb(223,50,97);stop-opacity:1"/><stop offset="1" style="stop-color:rgb(25,59,123);stop-opacity:1"/></linearGradient>
    </defs>
</svg>
